<svg height="26" viewBox="0 0 26 26" width="26" xmlns="http://www.w3.org/2000/svg"><g fill="none" fill-rule="evenodd"><path d="m0 0h26v26h-26z"/><path d="m24.5 20c.8284271 0 1.5.6715729 1.5 1.5s-.6715729 1.5-1.5 1.5h-23c-.82842712 0-1.5-.6715729-1.5-1.5s.67157288-1.5 1.5-1.5zm0-8c.8284271 0 1.5.6715729 1.5 1.5s-.6715729 1.5-1.5 1.5h-23c-.82842712 0-1.5-.6715729-1.5-1.5s.67157288-1.5 1.5-1.5zm0-8c.8284271 0 1.5.67157288 1.5 1.5s-.6715729 1.5-1.5 1.5h-23c-.82842712 0-1.5-.67157288-1.5-1.5s.67157288-1.5 1.5-1.5z" fill="#fff"/></g></svg>