<svg xmlns="http://www.w3.org/2000/svg" xmlns:xlink="http://www.w3.org/1999/xlink" fill="none" version="1.1" width="40" height="40" viewBox="0 0 40 40"><defs><clipPath id="master_svg0_497_07894"><rect x="0" y="0" width="40" height="40" rx="20"/></clipPath></defs><g style="mix-blend-mode:passthrough" clip-path="url(#master_svg0_497_07894)"><g style="mix-blend-mode:passthrough"><g style="mix-blend-mode:passthrough"><g style="mix-blend-mode:passthrough"><path d="M24.24270488647461,15.757445458374024C24.43362488647461,15.948364458374023,24.532624886474608,16.202922458374022,24.53969488647461,16.464555458374022C24.532624886474608,16.726185458374022,24.43362488647461,16.980735458374024,24.24270488647461,17.171655458374023L21.41414488647461,20.000215458374022L24.24270488647461,22.828775458374025C24.43362488647461,23.019695458374024,24.532624886474608,23.27425545837402,24.53969488647461,23.535885458374025C24.532624886474608,23.797515458374022,24.43362488647461,24.052075458374023,24.24270488647461,24.242995458374025C24.051784886474607,24.433915458374024,23.79722488647461,24.532905458374024,23.53560488647461,24.539975458374023C23.27397488647461,24.532905458374024,23.01941488647461,24.433915458374024,22.82849488647461,24.242995458374025L19.99993488647461,21.414435458374022L17.17164488647461,24.242725458374025C16.980724886474608,24.433645458374023,16.72616488647461,24.532635458374024,16.46453488647461,24.539715458374026C16.20290388647461,24.532635458374024,15.94834488647461,24.433645458374023,15.75742688647461,24.242725458374025C15.566507886474609,24.051805458374023,15.46751263647461,23.79724545837402,15.460441589374609,23.535615458374025C15.46751263647461,23.273985458374025,15.566507886474609,23.019435458374023,15.75742688647461,22.828515458374024L18.58572488647461,20.000215458374022L15.75742688647461,17.171925458374023C15.566507886474609,16.981005458374025,15.46751263647461,16.726445458374023,15.460441589374609,16.464815458374023C15.46751263647461,16.203189458374023,15.566507886474609,15.948631458374024,15.75742688647461,15.757712458374023C15.94834488647461,15.566793458374024,16.20290388647461,15.467798408374023,16.46453488647461,15.460727334374024C16.72616488647461,15.467798468374024,16.980724886474608,15.566793458374024,17.17164488647461,15.757712458374023L19.99993488647461,18.586005458374025L22.82849488647461,15.757445458374024C23.01941488647461,15.566525458374024,23.27397488647461,15.467531208374023,23.53560488647461,15.460460662874024C23.79722488647461,15.467531208374023,24.051784886474607,15.566526458374023,24.24270488647461,15.757445458374024Z" fill-rule="evenodd" fill="#FFFFFF" fill-opacity="0.800000011920929"/></g></g></g><rect x="0.5" y="0.5" width="39" height="39" rx="19.5" fill-opacity="0" stroke-opacity="0.550000011920929" stroke="#FFFFFF" fill="none" stroke-width="1"/></g></svg>