<svg xmlns="http://www.w3.org/2000/svg" xmlns:xlink="http://www.w3.org/1999/xlink" fill="none" version="1.1" width="18" height="18" viewBox="0 0 18 18"><g style="mix-blend-mode:passthrough"><g style="mix-blend-mode:passthrough"><g style="mix-blend-mode:passthrough" transform="matrix(0.7071067690849304,-0.7071067690849304,0.7071067690849304,0.7071067690849304,-2.677781599573791,4.464950584340841)"><path d="M5.76078125,17.17484375C5.94078125,16.98484375,6.05078125,16.73484375,6.05078125,16.46484375L6.05078125,6.46484375C6.05078125,6.19484375,5.94078125,5.94484375,5.76078125,5.75484375C5.57078125,5.57484375,5.32078125,5.46484375,5.05078125,5.46484375C4.78078125,5.46484375,4.53078125,5.57484375,4.34078125,5.75484375C4.16078125,5.94484375,4.05078125,6.19484375,4.05078125,6.46484375L4.05078125,16.46484375C4.05078125,16.73484375,4.16078125,16.98484375,4.34078125,17.17484375C4.53078125,17.35484375,4.78078125,17.46484375,5.05078125,17.46484375C5.32078125,17.46484375,5.57078125,17.35484375,5.76078125,17.17484375Z" fill-rule="evenodd" fill="#DEE0E0" fill-opacity="1"/></g><g style="mix-blend-mode:passthrough" transform="matrix(0.7071067690849304,-0.7071067690849304,0.7071067690849304,0.7071067690849304,-7.677247427869588,6.5357972560450435)"><path d="M15.76078125,14.24515625C15.94078125,14.05515625,16.05078125,13.80515625,16.05078125,13.53515625C16.05078125,13.26515625,15.94078125,13.01515625,15.76078125,12.82515625C15.57078125,12.64515625,15.32078125,12.53515625,15.05078125,12.53515625L5.05078125,12.53515625C4.78078125,12.53515625,4.53078125,12.64515625,4.34078125,12.82515625C4.16078125,13.01515625,4.05078125,13.26515625,4.05078125,13.53515625C4.05078125,13.80515625,4.16078125,14.05515625,4.34078125,14.24515625C4.53078125,14.42515625,4.78078125,14.53515625,5.05078125,14.53515625L15.05078125,14.53515625C15.32078125,14.53515625,15.57078125,14.42515625,15.76078125,14.24515625Z" fill-rule="evenodd" fill="#DEE0E0" fill-opacity="1"/></g></g></g></svg>